<svg version="1.1" id="Layer_1" xmlns="http://www.w3.org/2000/svg" xmlns:xlink="http://www.w3.org/1999/xlink" x="0px" y="0px"
	 width="100%" viewBox="0 0 225 225" enable-background="new 0 0 225 225" xml:space="preserve">
<path fill="#FFFEFE" opacity="1.000000" stroke="none" 
	d="
M1.000000,85.000000 
	C1.000000,56.666672 1.000000,28.833344 1.000000,1.000011 
	C75.999977,1.000007 150.999954,1.000007 225.999954,1.000004 
	C225.999969,75.999969 225.999969,150.999939 225.999985,225.999939 
	C151.000046,225.999954 76.000092,225.999954 1.000068,225.999969 
	C1.000000,179.166672 1.000000,132.333328 1.000000,85.000000 
M151.000610,28.000320 
	C151.000610,28.000320 151.010071,27.992199 150.528214,27.575508 
	C149.352264,27.114536 148.176300,26.653566 146.566116,25.946115 
	C146.566116,25.946115 146.067688,25.975954 145.489105,25.538509 
	C141.659515,24.422413 137.829941,23.306316 133.362350,21.962086 
	C132.913681,21.961435 132.465012,21.960787 131.348633,21.587505 
	C127.232712,21.088873 123.116783,20.590240 118.096382,19.929602 
	C114.730736,19.983709 111.365097,20.037817 107.125603,19.983624 
	C103.080017,20.647192 99.034431,21.310760 94.315147,21.906811 
	C93.876854,22.003521 93.438553,22.100231 92.235504,22.196310 
	C88.468445,23.456491 84.701393,24.716671 80.435478,25.946394 
	C80.435478,25.946394 79.999992,26.191629 79.446297,26.212660 
	C78.974442,26.502264 78.502594,26.791866 77.308990,27.100718 
	C75.667252,27.790611 74.025513,28.480503 72.526772,29.110304 
	C60.750244,18.012428 46.563911,16.779078 36.032413,25.706743 
	C25.263937,34.835300 24.826017,47.720356 34.919266,62.272549 
	C26.206070,76.215523 20.905472,91.387062 19.994457,108.496826 
	C20.030548,108.663345 20.066639,108.829872 19.935387,109.900543 
	C19.993879,113.268394 20.052370,116.636238 19.995159,120.782539 
	C20.301254,122.534950 20.607349,124.287354 20.794014,126.785866 
	C20.904169,127.530708 21.014326,128.275543 21.057610,129.775574 
	C21.443218,131.498444 21.828827,133.221329 22.234245,135.708725 
	C22.690611,137.303757 23.112484,138.909576 23.608355,140.492233 
	C38.918243,189.356216 84.585907,212.961365 129.615906,205.721664 
	C168.961624,199.395874 200.773865,166.964935 206.076385,128.196625 
	C206.337524,125.466057 206.598679,122.735481 207.051483,119.085228 
	C208.030823,98.462997 202.919861,79.406960 192.330383,62.646973 
	C194.479004,59.040447 196.805573,56.274677 197.916000,53.085468 
	C204.839951,33.199512 188.861877,17.301804 170.248260,20.073254 
	C168.436813,20.693197 166.625381,21.313143 164.370636,21.907078 
	C164.370636,21.907078 163.983917,22.125357 163.435364,22.130819 
	C163.187210,22.386604 162.939041,22.642387 162.285553,22.918301 
	C162.285553,22.918301 161.973541,23.177820 161.480408,23.218872 
	C161.180664,23.387083 160.963791,23.629454 160.299042,24.053915 
	C160.174469,24.184597 160.049911,24.315277 159.616257,24.526817 
	C159.410873,24.634998 159.292648,24.804129 158.720490,25.229660 
	C158.488220,25.527534 158.255966,25.825409 157.578186,26.256969 
	C157.296188,26.437479 157.138550,26.694323 157.029129,27.021452 
	C157.029129,27.021452 157.040375,27.097010 156.441879,27.397385 
	C155.303238,27.907272 154.164581,28.417162 153.022888,28.998695 
	C153.022888,28.998695 153.076157,28.950682 152.677185,28.502661 
	C152.119690,28.332069 151.562210,28.161480 151.000610,28.000320 
z"/>
<path fill="#D61065" opacity="1.000000" stroke="none" 
	d="
M159.925369,24.445957 
	C160.049911,24.315277 160.174469,24.184597 160.796616,23.941624 
	C161.599457,23.694355 161.825912,23.477186 161.973541,23.177820 
	C161.973541,23.177820 162.285553,22.918301 162.748322,22.864708 
	C163.468704,22.582529 163.726318,22.353945 163.983917,22.125359 
	C163.983917,22.125357 164.370636,21.907078 164.988983,21.939240 
	C167.398361,21.363453 169.189392,20.755505 170.980423,20.147556 
	C188.861877,17.301804 204.839951,33.199512 197.916000,53.085468 
	C196.805573,56.274677 194.479004,59.040447 192.330383,62.646973 
	C202.919861,79.406960 208.030823,98.462997 206.584412,119.638878 
	C206.034912,123.119591 205.952454,126.046646 205.869995,128.973709 
	C200.773865,166.964935 168.961624,199.395874 129.615906,205.721664 
	C84.585907,212.961365 38.918243,189.356216 23.608355,140.492233 
	C23.112484,138.909576 22.690611,137.303757 22.453838,135.071777 
	C22.157116,132.630020 21.640800,130.825195 21.124483,129.020386 
	C21.014326,128.275543 20.904169,127.530708 21.144646,126.172318 
	C21.033804,123.707207 20.572332,121.855652 20.110863,120.004089 
	C20.052370,116.636238 19.993879,113.268394 20.259041,109.433777 
	C20.837612,108.816261 21.092527,108.665504 21.347445,108.514748 
	C20.942631,108.344757 20.537815,108.174767 20.132999,108.004784 
	C20.905472,91.387062 26.206070,76.215523 34.919266,62.272549 
	C24.826017,47.720356 25.263937,34.835300 36.032413,25.706743 
	C46.563911,16.779078 60.750244,18.012428 72.526772,29.110304 
	C74.025513,28.480503 75.667252,27.790611 77.835281,27.303619 
	C78.907715,27.068222 79.453857,26.629925 79.999992,26.191629 
	C79.999992,26.191629 80.435478,25.946394 81.105591,25.968966 
	C85.517220,24.726671 89.258743,23.461807 93.000259,22.196943 
	C93.438553,22.100231 93.876854,22.003521 94.899399,22.224014 
	C99.022522,22.344378 102.570984,22.239416 106.092041,21.871866 
	C106.782265,21.799814 107.366394,20.711517 107.999451,20.091927 
	C111.365097,20.037817 114.730736,19.983709 118.644257,20.392780 
	C123.466866,21.224016 127.741608,21.592075 132.016342,21.960136 
	C132.465012,21.960787 132.913681,21.961435 133.766510,22.425213 
	C138.136337,23.917545 142.102020,24.946749 146.067688,25.975952 
	C146.067688,25.975954 146.566116,25.946115 146.863708,26.411898 
	C148.444229,27.249186 149.727142,27.620693 151.010071,27.992199 
	C151.010071,27.992199 151.000610,28.000320 151.176056,28.246342 
	C151.926376,28.645138 152.501266,28.797911 153.076157,28.950684 
	C153.076157,28.950682 153.022888,28.998695 153.171402,29.285295 
	C157.325073,32.903534 156.837448,29.481224 157.040375,27.097010 
	C157.040375,27.097010 157.029129,27.021452 157.259460,26.917328 
	C157.730392,26.631691 157.908371,26.401720 158.023712,26.123287 
	C158.255966,25.825409 158.488220,25.527534 159.120697,25.056622 
	C159.688965,24.768423 159.823776,24.622547 159.925369,24.445957 
M121.447891,198.510239 
	C124.513031,198.675751 127.904861,200.158218 130.730759,196.067337 
	C175.121506,186.875717 204.759995,143.311234 196.743179,99.038177 
	C188.093506,51.270187 141.985626,20.680340 94.506905,31.210476 
	C50.678345,40.931057 21.410616,86.123489 30.731869,129.685776 
	C38.480816,165.899979 64.578758,190.637863 102.162148,197.897766 
	C103.449554,197.911682 104.736961,197.925598 106.848991,197.786331 
	C108.239311,197.887619 109.629623,197.988922 111.491165,198.596863 
	C112.987465,198.427979 114.483772,198.259094 116.799942,197.916641 
	C118.191376,197.924286 119.582802,197.931946 121.447891,198.510239 
M205.482758,107.589775 
	C205.482758,107.589775 205.415527,107.477501 205.482758,107.589775 
z"/>
<path fill="#D41166" opacity="1.000000" stroke="none" 
	d="
M107.562531,20.037777 
	C107.366394,20.711517 106.782265,21.799814 106.092041,21.871866 
	C102.570984,22.239416 99.022522,22.344378 95.236244,22.257774 
	C99.034431,21.310760 103.080017,20.647192 107.562531,20.037777 
z"/>
<path fill="#D41166" opacity="1.000000" stroke="none" 
	d="
M131.682495,21.773821 
	C127.741608,21.592075 123.466866,21.224016 119.096497,20.473782 
	C123.116783,20.590240 127.232712,21.088873 131.682495,21.773821 
z"/>
<path fill="#D41166" opacity="1.000000" stroke="none" 
	d="
M92.617882,22.196627 
	C89.258743,23.461807 85.517220,24.726671 81.355019,25.984196 
	C84.701393,24.716671 88.468445,23.456491 92.617882,22.196627 
z"/>
<path fill="#D41166" opacity="1.000000" stroke="none" 
	d="
M145.778397,25.757231 
	C142.102020,24.946749 138.136337,23.917545 134.085510,22.539280 
	C137.829941,23.306316 141.659515,24.422413 145.778397,25.757231 
z"/>
<path fill="#D30A63" opacity="1.000000" stroke="none" 
	d="
M205.973190,128.585175 
	C205.952454,126.046646 206.034912,123.119591 206.488586,120.098724 
	C206.598679,122.735481 206.337524,125.466057 205.973190,128.585175 
z"/>
<path fill="#D40862" opacity="1.000000" stroke="none" 
	d="
M20.053011,120.393311 
	C20.572332,121.855652 21.033804,123.707207 21.204361,125.799271 
	C20.607349,124.287354 20.301254,122.534950 20.053011,120.393311 
z"/>
<path fill="#D41166" opacity="1.000000" stroke="none" 
	d="
M156.741119,27.247196 
	C156.837448,29.481224 157.325073,32.903534 153.172928,29.249474 
	C154.164581,28.417162 155.303238,27.907272 156.741119,27.247196 
z"/>
<path fill="#D40862" opacity="1.000000" stroke="none" 
	d="
M21.091045,129.397980 
	C21.640800,130.825195 22.157116,132.630020 22.443935,134.689514 
	C21.828827,133.221329 21.443218,131.498444 21.091045,129.397980 
z"/>
<path fill="#D41166" opacity="1.000000" stroke="none" 
	d="
M170.614349,20.110405 
	C169.189392,20.755505 167.398361,21.363453 165.210632,21.952244 
	C166.625381,21.313143 168.436813,20.693197 170.614349,20.110405 
z"/>
<path fill="#D41166" opacity="1.000000" stroke="none" 
	d="
M150.769135,27.783855 
	C149.727142,27.620693 148.444229,27.249186 147.080826,26.535137 
	C148.176300,26.653566 149.352264,27.114536 150.769135,27.783855 
z"/>
<path fill="#D41166" opacity="1.000000" stroke="none" 
	d="
M79.723145,26.202145 
	C79.453857,26.629925 78.907715,27.068222 78.196159,27.293995 
	C78.502594,26.791866 78.974442,26.502264 79.723145,26.202145 
z"/>
<path fill="#D40862" opacity="1.000000" stroke="none" 
	d="
M20.063728,108.250809 
	C20.537815,108.174767 20.942631,108.344757 21.347445,108.514748 
	C21.092527,108.665504 20.837612,108.816261 20.342712,108.981712 
	C20.066639,108.829872 20.030548,108.663345 20.063728,108.250809 
z"/>
<path fill="#D41166" opacity="1.000000" stroke="none" 
	d="
M152.876678,28.726673 
	C152.501266,28.797911 151.926376,28.645138 151.178101,28.241627 
	C151.562210,28.161480 152.119690,28.332069 152.876678,28.726673 
z"/>
<path fill="#D41166" opacity="1.000000" stroke="none" 
	d="
M157.800949,26.190128 
	C157.908371,26.401720 157.730392,26.631691 157.297546,26.920351 
	C157.138550,26.694323 157.296188,26.437479 157.800949,26.190128 
z"/>
<path fill="#D41166" opacity="1.000000" stroke="none" 
	d="
M163.709641,22.128090 
	C163.726318,22.353945 163.468704,22.582529 162.950989,22.854643 
	C162.939041,22.642387 163.187210,22.386604 163.709641,22.128090 
z"/>
<path fill="#D41166" opacity="1.000000" stroke="none" 
	d="
M159.770813,24.486387 
	C159.823776,24.622547 159.688965,24.768423 159.391251,24.958897 
	C159.292648,24.804129 159.410873,24.634998 159.770813,24.486387 
z"/>
<path fill="#D41166" opacity="1.000000" stroke="none" 
	d="
M161.726974,23.198345 
	C161.825912,23.477186 161.599457,23.694355 161.061981,23.887657 
	C160.963791,23.629454 161.180664,23.387083 161.726974,23.198345 
z"/>
<path fill="#FEFDFE" opacity="1.000000" stroke="none" 
	d="
M111.019943,198.090225 
	C109.629623,197.988922 108.239311,197.887619 106.125511,197.718170 
	C104.271080,197.516174 103.140121,197.382355 102.009171,197.248520 
	C64.578758,190.637863 38.480816,165.899979 30.731869,129.685776 
	C21.410616,86.123489 50.678345,40.931057 94.506905,31.210476 
	C141.985626,20.680340 188.093506,51.270187 196.743179,99.038177 
	C204.759995,143.311234 175.121506,186.875717 129.978806,196.260529 
	C126.475983,196.949005 123.725105,197.444305 120.974236,197.939590 
	C119.582802,197.931946 118.191376,197.924286 115.980164,197.937347 
	C113.780235,198.002106 112.400085,198.046158 111.019943,198.090225 
M134.997192,144.005310 
	C134.997192,144.005310 135.014694,144.024139 135.506592,143.492416 
	C137.205627,138.234787 137.205627,138.234787 134.078415,136.937378 
	C120.050865,136.990662 106.023323,137.043945 91.240059,136.997360 
	C91.449226,139.210541 91.658394,141.423706 91.837296,144.300995 
	C95.899170,153.070374 103.516960,156.467178 112.420654,156.773239 
	C121.283684,157.077881 129.118591,154.224396 134.429260,145.611588 
	C134.625916,145.078094 134.822571,144.544601 134.997192,144.005310 
M77.979996,113.620758 
	C78.523743,112.594666 78.955200,111.487328 79.629417,110.555641 
	C84.106369,104.369026 88.630936,98.216820 93.148407,92.059578 
	C99.856293,82.916801 95.949760,70.659546 85.055496,67.832733 
	C81.734116,66.970909 77.911263,68.259499 74.412750,67.816132 
	C67.605759,66.953491 62.128075,69.665512 57.145294,73.620422 
	C49.643196,79.574959 45.245762,87.142189 43.300117,96.853447 
	C40.869667,108.984535 46.780972,124.502075 57.676350,130.285843 
	C64.665085,133.995789 70.889984,131.879181 73.952950,124.586105 
	C75.361824,121.231506 76.433846,117.735443 77.979996,113.620758 
M132.718643,90.555534 
	C141.573288,100.973442 149.508347,111.796211 153.395218,125.328728 
	C155.491592,132.627472 163.296326,134.101685 170.217133,129.567719 
	C183.301193,120.996025 188.031616,102.072006 180.885361,86.889534 
	C173.883667,72.014114 157.882477,64.112221 141.942841,67.684013 
	C133.635895,69.545456 126.833527,81.401962 132.718643,90.555534 
M98.569031,121.537865 
	C106.549255,131.446228 118.417244,132.407074 126.829597,123.568993 
	C128.225281,122.102676 129.570511,119.114525 128.966080,117.636482 
	C128.372421,116.184807 125.316605,115.174660 123.252655,114.996239 
	C117.203476,114.473328 111.110680,114.444290 105.033966,114.253975 
	C100.498436,114.111908 97.957939,116.583000 98.569031,121.537865 
z"/>
<path fill="#D40960" opacity="1.000000" stroke="none" 
	d="
M121.211060,198.224915 
	C123.725105,197.444305 126.475983,196.949005 129.610535,196.421951 
	C127.904861,200.158218 124.513031,198.675751 121.211060,198.224915 
z"/>
<path fill="#D40960" opacity="1.000000" stroke="none" 
	d="
M102.085663,197.573151 
	C103.140121,197.382355 104.271080,197.516174 105.713196,197.794769 
	C104.736961,197.925598 103.449554,197.911682 102.085663,197.573151 
z"/>
<path fill="#D40960" opacity="1.000000" stroke="none" 
	d="
M111.255554,198.343536 
	C112.400085,198.046158 113.780235,198.002106 115.570221,198.024139 
	C114.483772,198.259094 112.987465,198.427979 111.255554,198.343536 
z"/>
<path fill="#D30A63" opacity="1.000000" stroke="none" 
	d="
M205.449142,107.533638 
	C205.415527,107.477501 205.482758,107.589775 205.449142,107.533638 
z"/>
<path fill="#D60F65" opacity="1.000000" stroke="none" 
	d="
M77.819305,113.962143 
	C76.433846,117.735443 75.361824,121.231506 73.952950,124.586105 
	C70.889984,131.879181 64.665085,133.995789 57.676350,130.285843 
	C46.780972,124.502075 40.869667,108.984535 43.300117,96.853447 
	C45.245762,87.142189 49.643196,79.574959 57.145294,73.620422 
	C62.128075,69.665512 67.605759,66.953491 74.412750,67.816132 
	C77.911263,68.259499 81.734116,66.970909 85.055496,67.832733 
	C95.949760,70.659546 99.856293,82.916801 93.148407,92.059578 
	C88.630936,98.216820 84.106369,104.369026 79.629417,110.555641 
	C78.955200,111.487328 78.523743,112.594666 77.819305,113.962143 
M72.930885,93.632591 
	C75.501289,95.475578 78.300194,95.441971 79.707375,92.715622 
	C80.506371,91.167625 80.105522,88.086693 78.985703,86.755486 
	C78.114128,85.719383 74.898651,85.572998 73.430199,86.355247 
	C70.709900,87.804344 70.500275,90.494705 72.930885,93.632591 
z"/>
<path fill="#D60F65" opacity="1.000000" stroke="none" 
	d="
M132.488434,90.258987 
	C126.833527,81.401962 133.635895,69.545456 141.942841,67.684013 
	C157.882477,64.112221 173.883667,72.014114 180.885361,86.889534 
	C188.031616,102.072006 183.301193,120.996025 170.217133,129.567719 
	C163.296326,134.101685 155.491592,132.627472 153.395218,125.328728 
	C149.508347,111.796211 141.573288,100.973442 132.488434,90.258987 
M146.349350,88.944885 
	C146.846008,93.454124 149.180328,95.892303 152.166458,94.524162 
	C153.690033,93.826126 155.450348,91.849846 155.549530,90.348640 
	C155.646469,88.881516 153.821701,86.057838 152.742493,86.009338 
	C150.754257,85.919960 148.694229,87.427391 146.349350,88.944885 
z"/>
<path fill="#D61065" opacity="1.000000" stroke="none" 
	d="
M91.995773,137.097214 
	C106.023323,137.043945 120.050865,136.990662 134.538544,137.449432 
	C135.003998,139.982376 135.009338,142.003265 135.014679,144.024139 
	C135.014694,144.024139 134.997192,144.005310 134.714081,144.032684 
	C134.281815,144.704437 134.132675,145.348816 133.983551,145.993210 
	C129.118591,154.224396 121.283684,157.077881 112.420654,156.773239 
	C103.516960,156.467178 95.899170,153.070374 91.885529,143.494446 
	C91.954437,140.824341 91.975105,138.960785 91.995773,137.097214 
z"/>
<path fill="#D61065" opacity="1.000000" stroke="none" 
	d="
M98.358139,121.213303 
	C97.957939,116.583000 100.498436,114.111908 105.033966,114.253975 
	C111.110680,114.444290 117.203476,114.473328 123.252655,114.996239 
	C125.316605,115.174660 128.372421,116.184807 128.966080,117.636482 
	C129.570511,119.114525 128.225281,122.102676 126.829597,123.568993 
	C118.417244,132.407074 106.549255,131.446228 98.358139,121.213303 
z"/>
<path fill="#D40662" opacity="1.000000" stroke="none" 
	d="
M135.260635,143.758270 
	C135.009338,142.003265 135.003998,139.982376 135.001480,137.529633 
	C137.205627,138.234787 137.205627,138.234787 135.260635,143.758270 
z"/>
<path fill="#D40662" opacity="1.000000" stroke="none" 
	d="
M91.617920,137.047287 
	C91.975105,138.960785 91.954437,140.824341 91.900665,143.162399 
	C91.658394,141.423706 91.449226,139.210541 91.617920,137.047287 
z"/>
<path fill="#D40662" opacity="1.000000" stroke="none" 
	d="
M134.206390,145.802399 
	C134.132675,145.348816 134.281815,144.704437 134.725098,144.035583 
	C134.822571,144.544601 134.625916,145.078094 134.206390,145.802399 
z"/>
<path fill="#F9EFF4" opacity="1.000000" stroke="none" 
	d="
M72.665207,93.366058 
	C70.500275,90.494705 70.709900,87.804344 73.430199,86.355247 
	C74.898651,85.572998 78.114128,85.719383 78.985703,86.755486 
	C80.105522,88.086693 80.506371,91.167625 79.707375,92.715622 
	C78.300194,95.441971 75.501289,95.475578 72.665207,93.366058 
z"/>
<path fill="#F9EDF3" opacity="1.000000" stroke="none" 
	d="
M146.506744,88.607147 
	C148.694229,87.427391 150.754257,85.919960 152.742493,86.009338 
	C153.821701,86.057838 155.646469,88.881516 155.549530,90.348640 
	C155.450348,91.849846 153.690033,93.826126 152.166458,94.524162 
	C149.180328,95.892303 146.846008,93.454124 146.506744,88.607147 
z"/>
</svg>